<?xml version="1.0" standalone="no"?><!-- Generator: Gravit.io --><svg xmlns="http://www.w3.org/2000/svg" xmlns:xlink="http://www.w3.org/1999/xlink" style="isolation:isolate" viewBox="12 6 50 50" width="50" height="50"><g id="Group"><path d=" M 12 31 C 12 17.2 23.2 6 37 6 C 50.8 6 62 17.2 62 31 C 62 44.8 50.8 56 37 56 C 23.2 56 12 44.8 12 31 Z " fill="rgb(128,28,124)"/><path d=" M 38.33 27.42 L 51.2 27.42 C 51.82 27.42 52.34 27.58 52.34 27.77 L 52.34 34.23 C 52.34 34.42 51.82 34.58 51.2 34.58 L 38.33 34.58 C 38.33 36.63 38.33 38.46 38.33 39.62 C 38.33 39.89 38.19 40.15 37.95 40.29 C 37.71 40.42 37.42 40.42 37.18 40.29 C 34.02 38.49 25.24 33.48 22.05 31.67 L 22.05 31.67 C 21.81 31.53 21.66 31.28 21.66 31 C 21.66 30.72 21.81 30.47 22.05 30.33 C 25.24 28.52 34.02 23.51 37.18 21.71 C 37.42 21.58 37.71 21.58 37.95 21.71 C 38.19 21.85 38.33 22.11 38.33 22.38 C 38.33 23.54 38.33 25.37 38.33 27.42 Z " fill-rule="evenodd" fill="rgb(255,255,255)"/></g></svg>