<?xml version="1.0" standalone="no"?><!-- Generator: Gravit.io --><svg xmlns="http://www.w3.org/2000/svg" xmlns:xlink="http://www.w3.org/1999/xlink" style="isolation:isolate" viewBox="324.702 128.498 198.203 181.485" width="198.203" height="181.485"><g id="Group"><g id="Group"><g id="Group"><path d="M 336.09 191.74 L 510.64 191.74 C 513.07 191.74 515.04 193.71 515.04 196.14 L 515.04 305.59 C 515.04 308.01 513.07 309.98 510.64 309.98 L 336.09 309.98 C 333.67 309.98 331.7 308.01 331.7 305.59 L 331.7 196.14 C 331.7 193.71 333.67 191.74 336.09 191.74 Z" style="stroke:none;fill:#801C7C;stroke-miterlimit:10;"/><path d="M 331.7 262.12 L 331.7 242.37 L 331.7 242.37 L 515.04 242.37 L 515.04 242.37 L 515.04 262.12 L 331.7 262.12 Z" style="stroke:none;fill:#FFFFFF;stroke-miterlimit:10;"/><path d="M 331.7 262.12 L 331.7 242.37 L 331.7 242.37 L 515.04 242.37 L 515.04 242.37 L 515.04 262.12 L 331.7 262.12 Z" style="fill:none;stroke:#FFFFFF;stroke-width:1;stroke-linejoin:round;stroke-miterlimit:1.414;"/><g id="Group"><g id="Group"><g id="Group"><path d="M 332.82 184.82 L 514.62 183.72 C 519.13 183.7 522.81 187.33 522.83 191.84 L 522.9 203.51 C 522.93 208.02 519.29 211.7 514.79 211.72 L 332.99 212.82 C 328.48 212.84 324.8 209.21 324.77 204.7 L 324.7 193.03 C 324.67 188.52 328.31 184.84 332.82 184.82 Z" style="stroke:none;fill:#801C7C;stroke-linejoin:round;stroke-miterlimit:1.414;"/></g></g></g><path d=" M 433.31 196.39 C 433.31 196.39 433.31 196.39 433.32 196.38 C 438.36 192.47 440.48 185.94 439.24 179.88 L 467.58 183.31 C 467.58 183.31 467.58 183.31 467.58 183.31 C 475.95 183.32 483.6 176.98 485.45 168.49 C 486.18 165.16 461.6 166.06 459.21 160.46 C 456.83 154.86 461.76 129.02 459.25 128.66 C 450.99 127.48 442.57 132.83 439.59 141.15 C 439.59 141.16 439.58 141.16 439.58 141.16 L 439.59 141.17 L 433.21 170.15 C 428.96 166.92 423.37 166.16 418.47 168.21 L 416.7 147.4 C 416.7 147.4 416.7 147.4 416.7 147.4 C 415.1 139.32 408.05 133.84 400.22 134.61 C 396.3 135 400.09 155.94 393.49 164.12 C 390.19 168.21 379.87 164.76 376.3 166.6 C 372.73 168.45 370.02 169.79 370.16 171.87 C 370.71 180.2 377.03 186.71 384.93 187.08 C 384.94 187.08 384.94 187.08 384.94 187.08 L 384.94 187.08 L 408.78 184.8 C 409.03 187.66 410 190.48 411.73 192.95 C 412.29 193.75 412.9 194.48 413.57 195.13 L 413.42 309.95 L 433.16 309.98 L 433.31 196.39 Z " fill="rgb(255,255,255)"/></g></g></g></svg>