<?xml version="1.0" standalone="no"?><!-- Generator: Gravit.io --><svg xmlns="http://www.w3.org/2000/svg" xmlns:xlink="http://www.w3.org/1999/xlink" style="isolation:isolate" viewBox="555 808 512 232.366" width="512" height="232.366"><g id="Group"><path d=" M 631.52 882.94 Q 619.32 885.58 606.81 898.08 L 559.78 919.6 L 576.52 919.6 L 567.75 926.78 L 588.48 921.99 L 555 957.2 L 567.12 949.74 L 561.53 970.25 L 578.12 945.11 Q 597.99 928.86 610.95 929.22 Q 618.33 929.43 630.53 927.36 C 651.35 923.6 652.62 923.63 662.46 917.04 C 665.81 913.88 667.56 911.52 670.63 906.85 Q 675.01 900.19 674.56 874.97 C 685.57 867.11 684.66 863.41 685.72 860.62 Q 686.78 857.83 704.85 855.04 Q 698.74 852.11 688.11 851.85 Q 682.13 844.84 676.78 840.45 C 671.16 835.13 663.62 812.05 662.61 808 L 668.98 837.59 L 660.15 818.7 L 665.82 840.45 L 658.26 828.15 L 660.15 844.68 Q 655.12 854.12 650.65 866.2 Q 646.18 878.28 631.52 882.94 Z " fill="rgb(128,28,124)"/><path d=" M 616.68 1017.82 L 616.68 1017.82 L 616.68 1017.82 Q 626.11 1017.82 633.28 1012.63 L 633.28 1012.63 L 633.28 1012.63 Q 640.45 1007.44 642.51 998.65 L 642.51 998.65 L 642.51 983.99 L 642.51 983.99 Q 642.11 983.99 637.72 984.39 L 637.72 984.39 L 637.72 984.39 Q 633.32 984.79 631.97 984.86 L 631.97 984.86 L 631.97 984.86 Q 614.78 986.37 608.01 990.49 L 608.01 990.49 L 608.01 990.49 Q 601.23 994.61 601.23 1003.72 L 601.23 1003.72 L 601.23 1003.72 Q 601.23 1010.69 605.35 1014.26 L 605.35 1014.26 L 605.35 1014.26 Q 609.47 1017.82 616.68 1017.82 Z  M 655.74 1026.7 L 645.44 1026.7 L 645.44 1026.7 Q 644.25 1021.63 643.14 1015.76 L 643.14 1015.76 L 643.14 1015.76 Q 635.93 1022.97 629.6 1025.74 L 629.6 1025.74 L 629.6 1025.74 Q 623.26 1028.52 614.7 1028.52 L 614.7 1028.52 L 614.7 1028.52 Q 602.5 1028.52 595.09 1022.14 L 595.09 1022.14 L 595.09 1022.14 Q 587.69 1015.76 587.69 1003.8 L 587.69 1003.8 L 587.69 1003.8 Q 587.69 990.49 597.79 984.07 L 597.79 984.07 L 597.79 984.07 Q 607.89 977.65 626.9 976.07 L 626.9 976.07 L 626.9 976.07 Q 629.52 975.83 634.79 975.4 L 634.79 975.4 L 634.79 975.4 Q 640.05 974.96 642.67 974.72 L 642.67 974.72 L 642.67 967.04 L 642.67 967.04 Q 642.67 957.85 638.39 953.41 L 638.39 953.41 L 638.39 953.41 Q 634.11 948.98 624.92 948.98 L 624.92 948.98 L 624.92 948.98 Q 612.09 948.98 599.02 955.31 L 599.02 955.31 L 599.02 955.31 Q 598.62 954.36 596.96 949.81 L 596.96 949.81 L 596.96 949.81 Q 595.29 945.25 595.21 945.09 L 595.21 945.09 L 595.21 945.09 Q 601 941.85 608.96 939.9 L 608.96 939.9 L 608.96 939.9 Q 616.92 937.96 625.16 937.96 L 625.16 937.96 L 625.16 937.96 Q 641.4 937.96 648.57 945.05 L 648.57 945.05 L 648.57 945.05 Q 655.74 952.14 655.74 969.18 L 655.74 969.18 L 655.74 1026.7 L 655.74 1026.7 Z  M 701.93 1028.28 L 701.93 1028.28 L 701.93 1028.28 Q 689.25 1028.28 683.99 1021.47 L 683.99 1021.47 L 683.99 1021.47 Q 678.72 1014.65 678.72 997.78 L 678.72 997.78 L 678.72 906.04 L 691.87 905.24 L 691.87 992.55 L 691.87 992.55 Q 691.87 997.94 691.99 1001.18 L 691.99 1001.18 L 691.99 1001.18 Q 692.11 1004.43 692.58 1007.56 L 692.58 1007.56 L 692.58 1007.56 Q 693.06 1010.69 693.85 1012.28 L 693.85 1012.28 L 693.85 1012.28 Q 694.64 1013.86 696.15 1015.17 L 696.15 1015.17 L 696.15 1015.17 Q 697.65 1016.48 699.75 1016.91 L 699.75 1016.91 L 699.75 1016.91 Q 701.85 1017.35 704.94 1017.35 L 704.94 1017.35 L 704.94 1017.35 Q 707.48 1017.35 714.92 1016.4 L 714.92 1016.4 L 715.64 1026.93 L 715.64 1026.93 Q 707.48 1028.28 701.93 1028.28 Z  M 748.75 1017.82 L 748.75 1017.82 L 748.75 1017.82 Q 758.18 1017.82 765.35 1012.63 L 765.35 1012.63 L 765.35 1012.63 Q 772.52 1007.44 774.58 998.65 L 774.58 998.65 L 774.58 983.99 L 774.58 983.99 Q 774.18 983.99 769.79 984.39 L 769.79 984.39 L 769.79 984.39 Q 765.39 984.79 764.04 984.86 L 764.04 984.86 L 764.04 984.86 Q 746.85 986.37 740.08 990.49 L 740.08 990.49 L 740.08 990.49 Q 733.3 994.61 733.3 1003.72 L 733.3 1003.72 L 733.3 1003.72 Q 733.3 1010.69 737.42 1014.26 L 737.42 1014.26 L 737.42 1014.26 Q 741.54 1017.82 748.75 1017.82 Z  M 787.81 1026.7 L 777.51 1026.7 L 777.51 1026.7 Q 776.32 1021.63 775.21 1015.76 L 775.21 1015.76 L 775.21 1015.76 Q 768 1022.97 761.67 1025.74 L 761.67 1025.74 L 761.67 1025.74 Q 755.33 1028.52 746.77 1028.52 L 746.77 1028.52 L 746.77 1028.52 Q 734.57 1028.52 727.16 1022.14 L 727.16 1022.14 L 727.16 1022.14 Q 719.76 1015.76 719.76 1003.8 L 719.76 1003.8 L 719.76 1003.8 Q 719.76 990.49 729.86 984.07 L 729.86 984.07 L 729.86 984.07 Q 739.96 977.65 758.97 976.07 L 758.97 976.07 L 758.97 976.07 Q 761.59 975.83 766.85 975.4 L 766.85 975.4 L 766.85 975.4 Q 772.12 974.96 774.74 974.72 L 774.74 974.72 L 774.74 967.04 L 774.74 967.04 Q 774.74 957.85 770.46 953.41 L 770.46 953.41 L 770.46 953.41 Q 766.18 948.98 756.99 948.98 L 756.99 948.98 L 756.99 948.98 Q 744.16 948.98 731.08 955.31 L 731.08 955.31 L 731.08 955.31 Q 730.69 954.36 729.02 949.81 L 729.02 949.81 L 729.02 949.81 Q 727.36 945.25 727.28 945.09 L 727.28 945.09 L 727.28 945.09 Q 733.07 941.85 741.03 939.9 L 741.03 939.9 L 741.03 939.9 Q 748.99 937.96 757.23 937.96 L 757.23 937.96 L 757.23 937.96 Q 773.47 937.96 780.64 945.05 L 780.64 945.05 L 780.64 945.05 Q 787.81 952.14 787.81 969.18 L 787.81 969.18 L 787.81 1026.7 L 787.81 1026.7 Z  M 807.62 997.7 L 807.62 997.7 L 807.62 939.79 L 820.93 939.79 L 820.93 997.86 L 820.93 997.86 Q 820.93 1003.56 822.55 1007.52 L 822.55 1007.52 L 822.55 1007.52 Q 824.17 1011.48 827.22 1013.66 L 827.22 1013.66 L 827.22 1013.66 Q 830.27 1015.84 834.12 1016.79 L 834.12 1016.79 L 834.12 1016.79 Q 837.96 1017.74 842.95 1017.74 L 842.95 1017.74 L 842.95 1017.74 Q 853.25 1017.74 858.99 1013.23 L 858.99 1013.23 L 858.99 1013.23 Q 864.74 1008.71 864.74 997.86 L 864.74 997.86 L 864.74 939.79 L 878.05 939.79 L 878.05 997.7 L 878.05 997.7 Q 878.05 1004.35 876.15 1009.66 L 876.15 1009.66 L 876.15 1009.66 Q 874.24 1014.97 871.04 1018.5 L 871.04 1018.5 L 871.04 1018.5 Q 867.83 1022.02 863.31 1024.32 L 863.31 1024.32 L 863.31 1024.32 Q 858.8 1026.62 853.76 1027.65 L 853.76 1027.65 L 853.76 1027.65 Q 848.73 1028.68 842.95 1028.68 L 842.95 1028.68 L 842.95 1028.68 Q 837.25 1028.68 832.18 1027.65 L 832.18 1027.65 L 832.18 1027.65 Q 827.11 1026.62 822.55 1024.28 L 822.55 1024.28 L 822.55 1024.28 Q 817.99 1021.94 814.71 1018.42 L 814.71 1018.42 L 814.71 1018.42 Q 811.42 1014.89 809.52 1009.58 L 809.52 1009.58 L 809.52 1009.58 Q 807.62 1004.27 807.62 997.7 Z  M 931.68 1017.11 L 931.68 1017.11 L 931.68 1017.11 Q 944.76 1017.11 951.13 1008.71 L 951.13 1008.71 L 951.13 1008.71 Q 957.51 1000.31 957.51 984.71 L 957.51 984.71 L 957.51 984.71 Q 957.51 967.12 951.37 958.21 L 951.37 958.21 L 951.37 958.21 Q 945.23 949.29 931.52 949.29 L 931.52 949.29 L 931.52 949.29 Q 925.42 949.29 920.75 951.91 L 920.75 951.91 L 920.75 951.91 Q 916.08 954.52 913.22 959.2 L 913.22 959.2 L 913.22 959.2 Q 910.37 963.87 908.91 969.93 L 908.91 969.93 L 908.91 969.93 Q 907.44 975.99 907.44 983.2 L 907.44 983.2 L 907.44 983.2 Q 907.44 993.34 909.94 1000.79 L 909.94 1000.79 L 909.94 1000.79 Q 912.43 1008.24 917.98 1012.67 L 917.98 1012.67 L 917.98 1012.67 Q 923.52 1017.11 931.68 1017.11 Z  M 959.49 1026.7 L 957.75 1014.1 L 957.75 1014.1 Q 953.47 1020.67 946.34 1024.56 L 946.34 1024.56 L 946.34 1024.56 Q 939.21 1028.44 930.42 1028.44 L 930.42 1028.44 L 930.42 1028.44 Q 913.22 1028.44 903.48 1016.2 L 903.48 1016.2 L 903.48 1016.2 Q 893.73 1003.96 893.73 982.88 L 893.73 982.88 L 893.73 982.88 Q 893.73 962.76 903.64 950.36 L 903.64 950.36 L 903.64 950.36 Q 913.54 937.96 930.18 937.96 L 930.18 937.96 L 930.18 937.96 Q 938.81 937.96 946.46 941.73 L 946.46 941.73 L 946.46 941.73 Q 954.1 945.49 957.91 951.83 L 957.91 951.83 L 957.67 944.3 L 957.67 906.04 L 970.74 905.24 L 970.74 1026.7 L 959.49 1026.7 L 959.49 1026.7 Z  M 1018.83 1017.82 L 1018.83 1017.82 L 1018.83 1017.82 Q 1028.26 1017.82 1035.43 1012.63 L 1035.43 1012.63 L 1035.43 1012.63 Q 1042.6 1007.44 1044.66 998.65 L 1044.66 998.65 L 1044.66 983.99 L 1044.66 983.99 Q 1044.26 983.99 1039.87 984.39 L 1039.87 984.39 L 1039.87 984.39 Q 1035.47 984.79 1034.12 984.86 L 1034.12 984.86 L 1034.12 984.86 Q 1016.93 986.37 1010.16 990.49 L 1010.16 990.49 L 1010.16 990.49 Q 1003.38 994.61 1003.38 1003.72 L 1003.38 1003.72 L 1003.38 1003.72 Q 1003.38 1010.69 1007.5 1014.26 L 1007.5 1014.26 L 1007.5 1014.26 Q 1011.62 1017.82 1018.83 1017.82 Z  M 1057.89 1026.7 L 1047.59 1026.7 L 1047.59 1026.7 Q 1046.4 1021.63 1045.29 1015.76 L 1045.29 1015.76 L 1045.29 1015.76 Q 1038.08 1022.97 1031.74 1025.74 L 1031.74 1025.74 L 1031.74 1025.74 Q 1025.41 1028.52 1016.85 1028.52 L 1016.85 1028.52 L 1016.85 1028.52 Q 1004.65 1028.52 997.24 1022.14 L 997.24 1022.14 L 997.24 1022.14 Q 989.83 1015.76 989.83 1003.8 L 989.83 1003.8 L 989.83 1003.8 Q 989.83 990.49 999.94 984.07 L 999.94 984.07 L 999.94 984.07 Q 1010.04 977.65 1029.05 976.07 L 1029.05 976.07 L 1029.05 976.07 Q 1031.67 975.83 1036.93 975.4 L 1036.93 975.4 L 1036.93 975.4 Q 1042.2 974.96 1044.82 974.72 L 1044.82 974.72 L 1044.82 967.04 L 1044.82 967.04 Q 1044.82 957.85 1040.54 953.41 L 1040.54 953.41 L 1040.54 953.41 Q 1036.26 948.98 1027.07 948.98 L 1027.07 948.98 L 1027.07 948.98 Q 1014.24 948.98 1001.16 955.31 L 1001.16 955.31 L 1001.16 955.31 Q 1000.77 954.36 999.1 949.81 L 999.1 949.81 L 999.1 949.81 Q 997.44 945.25 997.36 945.09 L 997.36 945.09 L 997.36 945.09 Q 1003.14 941.85 1011.11 939.9 L 1011.11 939.9 L 1011.11 939.9 Q 1019.07 937.96 1027.31 937.96 L 1027.31 937.96 L 1027.31 937.96 Q 1043.55 937.96 1050.72 945.05 L 1050.72 945.05 L 1050.72 945.05 Q 1057.89 952.14 1057.89 969.18 L 1057.89 969.18 L 1057.89 1026.7 L 1057.89 1026.7 Z " fill-rule="evenodd" fill="rgb(128,28,124)"/></g></svg>